<?xml version="1.0" encoding="UTF-8"?>
<!--Generator: Apple Native CoreSVG 232.5-->
<!DOCTYPE svg
PUBLIC "-//W3C//DTD SVG 1.1//EN"
       "http://www.w3.org/Graphics/SVG/1.1/DTD/svg11.dtd">
<svg version="1.1" xmlns="http://www.w3.org/2000/svg" xmlns:xlink="http://www.w3.org/1999/xlink" width="579.964" height="324.125">
 <g>
  <rect height="324.125" opacity="0" width="579.964" x="0" y="0"/>
  <path d="M108.208 186.875C121.708 186.875 132.833 167.875 155.458 167.875C178.083 167.875 189.083 186.875 202.708 186.875C211.333 186.875 219.708 176.75 233.583 172.375L180.583 106.625C173.083 97.25 164.208 92.75 155.458 92.75C146.708 92.75 137.833 97.25 130.333 106.625L77.2083 172.625C90.7083 176.5 99.2083 186.875 108.208 186.875ZM27.0833 304.125L283.833 304.125C311.208 304.125 318.333 277.75 302.708 258.25L244.583 186.25C231.083 187.875 224.208 202.375 202.708 202.375C179.083 202.375 169.958 183.375 155.458 183.375C140.958 183.375 131.833 202.375 108.208 202.375C86.5833 202.375 79.7083 187.875 66.2083 186.25L8.20827 258.25C-7.54173 277.75-0.291734 304.125 27.0833 304.125Z" fill="#ffffff" fill-opacity="0.85"/>
  <path d="M184.833 324.125L533.208 324.125C576.083 324.125 592.833 279.625 569.208 248.625L400.458 26.875C376.708-4.375 338.458-0.75 317.583 26.875L148.958 248.75C125.208 279.75 142.083 324.125 184.833 324.125Z" fill="#1e1e1e"/>
  <path d="M305.333 148.25C320.833 148.25 333.333 126.5 359.083 126.5C384.708 126.5 397.333 148.25 412.833 148.25C424.958 148.25 435.708 134.125 453.083 129L384.583 39C370.208 20.125 347.958 19.875 333.458 39L264.958 129C282.458 134.25 293.333 148.25 305.333 148.25ZM184.833 304.125L533.333 304.125C559.708 304.125 566.833 278.5 553.458 260.75L465.208 145.375C446.583 148.5 437.333 165.875 412.833 165.875C386.083 165.875 375.583 144.125 359.083 144.125C342.583 144.125 332.083 165.875 305.333 165.875C280.833 165.875 271.458 148.5 252.958 145.375L164.708 260.75C151.333 278.5 158.458 304.125 184.833 304.125Z" fill="#ffffff" fill-opacity="0.85"/>
 </g>
</svg>
